<svg width="19" height="20" viewBox="0 0 19 20" fill="none" xmlns="http://www.w3.org/2000/svg">
<path opacity="0.963" fill-rule="evenodd" clip-rule="evenodd" d="M14.7254 0C15.064 0 15.4025 0 15.7411 0C17.4072 0.331534 18.4033 1.33414 18.7293 3.00781C18.8741 4.75695 18.1644 6.01348 16.6004 6.77734C15.0382 7.33234 13.6906 7.01336 12.5575 5.82031C10.6336 6.96773 8.71308 8.12008 6.79574 9.27734C7.01632 9.87613 7.08792 10.4946 7.01058 11.1328C6.98046 11.264 6.94788 11.3942 6.91292 11.5234C6.92109 11.5463 6.93413 11.5659 6.95199 11.582C8.76535 12.518 10.5818 13.449 12.4012 14.375C13.3158 13.2191 14.5072 12.7699 15.9754 13.0273C17.5099 13.4327 18.4279 14.4157 18.7293 15.9766C18.8741 17.7257 18.1644 18.9822 16.6004 19.7461C16.3164 19.8559 16.03 19.9406 15.7411 20C15.4025 20 15.064 20 14.7254 20C13.0593 19.6685 12.0632 18.6659 11.7371 16.9922C11.6894 16.4911 11.7219 15.9964 11.8348 15.5078C11.8218 15.4818 11.8087 15.4557 11.7957 15.4297C9.99543 14.5002 8.19203 13.5757 6.38558 12.6562C5.25148 14.028 3.8387 14.4252 2.14729 13.8477C0.583301 13.0838 -0.126336 11.8273 0.0183863 10.0781C0.337398 8.40496 1.33349 7.40887 3.00667 7.08984C4.2564 6.94398 5.30456 7.32809 6.1512 8.24219C8.08917 7.1009 10.0097 5.93555 11.9129 4.74609C11.4283 3.15534 11.8059 1.81419 13.0457 0.722656C13.5535 0.351343 14.1134 0.110458 14.7254 0ZM14.8426 1.21094C15.9922 1.10554 16.8321 1.56127 17.3622 2.57812C17.8012 3.93086 17.4041 4.95297 16.1707 5.64453C14.818 6.08359 13.7959 5.68645 13.1043 4.45312C12.6653 3.10041 13.0624 2.07827 14.2957 1.38672C14.4814 1.32259 14.6638 1.264 14.8426 1.21094ZM3.12386 8.28125C4.27347 8.17586 5.11331 8.6316 5.64339 9.64844C6.08245 11.0012 5.68531 12.0233 4.45198 12.7148C3.09926 13.1539 2.07713 12.7568 1.38557 11.5234C0.946516 10.1707 1.34365 9.14859 2.57698 8.45703C2.76269 8.39289 2.94498 8.3343 3.12386 8.28125ZM14.8426 14.1797C15.9922 14.0743 16.8321 14.53 17.3622 15.5469C17.8012 16.8996 17.4041 17.9217 16.1707 18.6133C14.818 19.0523 13.7959 18.6552 13.1043 17.4219C12.6653 16.0691 13.0624 15.047 14.2957 14.3555C14.4814 14.2913 14.6638 14.2327 14.8426 14.1797Z" fill="black"/>
</svg>
