<svg width="15" height="20" viewBox="0 0 15 20" fill="none" xmlns="http://www.w3.org/2000/svg">
<path opacity="0.972" fill-rule="evenodd" clip-rule="evenodd" d="M1.44531 0C5.48176 0 9.51824 0 13.5547 0C14.3304 0.220971 14.8056 0.728785 14.9805 1.52344C15.0065 7.30469 15.0065 13.0859 14.9805 18.8672C14.812 19.4459 14.4409 19.8235 13.8672 20C13.6328 20 13.3984 20 13.1641 20C12.9619 19.925 12.7666 19.8273 12.5781 19.707C11.0807 18.2096 9.58332 16.7122 8.08594 15.2148C7.71809 14.9459 7.34047 14.9329 6.95313 15.1758C5.4427 16.6862 3.93231 18.1966 2.42188 19.707C2.23344 19.8273 2.03813 19.925 1.83594 20C1.60156 20 1.36719 20 1.13281 20C0.559161 19.8235 0.188067 19.4459 0.0195322 18.8672C-0.00651074 13.0859 -0.00651074 7.30469 0.0195322 1.52344C0.194247 0.729301 0.669509 0.221488 1.44531 0ZM1.83594 1.17188C5.61199 1.16536 9.38805 1.17188 13.1641 1.19141C13.4709 1.22491 13.6727 1.38768 13.7695 1.67969C13.7956 7.34375 13.7956 13.0078 13.7695 18.6719C13.6378 18.8041 13.4881 18.8237 13.3203 18.7305C11.8229 17.2331 10.3255 15.7357 8.82813 14.2383C7.9427 13.6393 7.05731 13.6393 6.17188 14.2383C4.67449 15.7357 3.17707 17.2331 1.67969 18.7305C1.51195 18.8237 1.36223 18.8041 1.23047 18.6719C1.20443 12.9948 1.20443 7.3177 1.23047 1.64062C1.34999 1.37066 1.5518 1.21441 1.83594 1.17188Z" fill="black"/>
<path opacity="0.997" fill-rule="evenodd" clip-rule="evenodd" d="M1.44531 0C5.48176 0 9.51824 0 13.5547 0C14.3303 0.220971 14.8056 0.728785 14.9805 1.52344C15.0065 7.30469 15.0065 13.0859 14.9805 18.8672C14.8119 19.4459 14.4409 19.8235 13.8672 20C13.6328 20 13.3984 20 13.1641 20C12.9619 19.925 12.7666 19.8273 12.5781 19.707C11.0807 18.2096 9.58331 16.7122 8.08593 15.2148C7.71808 14.9459 7.34047 14.9329 6.95312 15.1758C5.44269 16.6862 3.9323 18.1966 2.42187 19.707C2.23344 19.8273 2.03812 19.925 1.83594 20C1.60156 20 1.36719 20 1.13281 20C0.559161 19.8235 0.188067 19.4459 0.0195322 18.8672C-0.00651074 13.0859 -0.00651074 7.30469 0.0195322 1.52344C0.194247 0.729301 0.669508 0.221488 1.44531 0Z" fill="#FF8800"/>
</svg>
